<mxfile host="app.diagrams.net" modified="2021-04-02T03:08:11.135Z" agent="5.0 (Macintosh; Intel Mac OS X 10_15_6) AppleWebKit/605.1.15 (KHTML, like Gecko) Version/14.0.3 Safari/605.1.15" etag="wt-19N49d_-wLAn85_5I" version="14.5.4" type="github">
  <diagram id="fVkqT968_KjDIddYnn1a" name="Page-1">
    <mxGraphModel dx="1483" dy="1841" grid="1" gridSize="10" guides="1" tooltips="1" connect="1" arrows="1" fold="1" page="1" pageScale="1" pageWidth="827" pageHeight="1169" math="0" shadow="0">
      <root>
        <mxCell id="0" />
        <mxCell id="1" parent="0" />
        <mxCell id="Lnzs5CYpK712hbzcGW8m-1" value="º" style="text;html=1;align=center;verticalAlign=middle;resizable=0;points=[];autosize=1;" parent="1" vertex="1">
          <mxGeometry y="-270" width="20" height="20" as="geometry" />
        </mxCell>
        <mxCell id="-tMsWFuX2rt4hmbT-Jkw-4" style="edgeStyle=orthogonalEdgeStyle;rounded=0;orthogonalLoop=1;jettySize=auto;html=1;entryX=0;entryY=0.5;entryDx=0;entryDy=0;" edge="1" parent="1" source="-tMsWFuX2rt4hmbT-Jkw-1" target="-tMsWFuX2rt4hmbT-Jkw-3">
          <mxGeometry relative="1" as="geometry" />
        </mxCell>
        <mxCell id="-tMsWFuX2rt4hmbT-Jkw-1" value="Preparar huevos con jamón para tres invitados" style="ellipse;whiteSpace=wrap;html=1;fillColor=#d5e8d4;strokeColor=#82b366;" vertex="1" parent="1">
          <mxGeometry x="-810" y="-1145" width="110" height="90" as="geometry" />
        </mxCell>
        <mxCell id="-tMsWFuX2rt4hmbT-Jkw-6" style="edgeStyle=orthogonalEdgeStyle;rounded=0;orthogonalLoop=1;jettySize=auto;html=1;entryX=0;entryY=0.5;entryDx=0;entryDy=0;" edge="1" parent="1" source="-tMsWFuX2rt4hmbT-Jkw-3" target="-tMsWFuX2rt4hmbT-Jkw-5">
          <mxGeometry relative="1" as="geometry" />
        </mxCell>
        <mxCell id="-tMsWFuX2rt4hmbT-Jkw-3" value="Preguntar a los invitados cuántos come cada uno" style="rhombus;whiteSpace=wrap;html=1;fillColor=#fff2cc;strokeColor=#d6b656;" vertex="1" parent="1">
          <mxGeometry x="-650" y="-1145" width="80" height="90" as="geometry" />
        </mxCell>
        <mxCell id="-tMsWFuX2rt4hmbT-Jkw-13" style="edgeStyle=orthogonalEdgeStyle;rounded=0;orthogonalLoop=1;jettySize=auto;html=1;entryX=0;entryY=0.5;entryDx=0;entryDy=0;" edge="1" parent="1" source="-tMsWFuX2rt4hmbT-Jkw-5" target="-tMsWFuX2rt4hmbT-Jkw-7">
          <mxGeometry relative="1" as="geometry" />
        </mxCell>
        <mxCell id="-tMsWFuX2rt4hmbT-Jkw-5" value="Calcular cuántos huevos se van a necesitar para la preparación" style="rounded=0;whiteSpace=wrap;html=1;" vertex="1" parent="1">
          <mxGeometry x="-540" y="-1130" width="110" height="60" as="geometry" />
        </mxCell>
        <mxCell id="-tMsWFuX2rt4hmbT-Jkw-15" style="edgeStyle=orthogonalEdgeStyle;rounded=0;orthogonalLoop=1;jettySize=auto;html=1;entryX=0;entryY=0.5;entryDx=0;entryDy=0;" edge="1" parent="1" source="-tMsWFuX2rt4hmbT-Jkw-7" target="-tMsWFuX2rt4hmbT-Jkw-9">
          <mxGeometry relative="1" as="geometry" />
        </mxCell>
        <mxCell id="-tMsWFuX2rt4hmbT-Jkw-7" value="Dependiendo de la respuesta, sacar la cantidad de huevos necesaria del refrigerador así como tres rebanadas de jamón y colocar los ingredientes en una superficie cercana a la estufa&amp;nbsp;" style="rounded=0;whiteSpace=wrap;html=1;" vertex="1" parent="1">
          <mxGeometry x="-380" y="-1150" width="170" height="100" as="geometry" />
        </mxCell>
        <mxCell id="-tMsWFuX2rt4hmbT-Jkw-16" style="edgeStyle=orthogonalEdgeStyle;rounded=0;orthogonalLoop=1;jettySize=auto;html=1;entryX=0.5;entryY=0;entryDx=0;entryDy=0;" edge="1" parent="1" source="-tMsWFuX2rt4hmbT-Jkw-9" target="-tMsWFuX2rt4hmbT-Jkw-11">
          <mxGeometry relative="1" as="geometry" />
        </mxCell>
        <mxCell id="-tMsWFuX2rt4hmbT-Jkw-9" value="Sacar los utensilios necesarios para la preparación (dos sartenes, dos espátulas, dos bowls, dos tenedores, un cuchillo y una tabla para picar)." style="rounded=0;whiteSpace=wrap;html=1;" vertex="1" parent="1">
          <mxGeometry x="-180" y="-1145" width="170" height="90" as="geometry" />
        </mxCell>
        <mxCell id="-tMsWFuX2rt4hmbT-Jkw-11" value="Tomar las rebanadas de jamón y picarlas en cuadritos con el cuchillo sobre la tabla para picar" style="rounded=0;whiteSpace=wrap;html=1;" vertex="1" parent="1">
          <mxGeometry x="-172.5" y="-1020" width="155" height="90" as="geometry" />
        </mxCell>
      </root>
    </mxGraphModel>
  </diagram>
</mxfile>
